{
	"asset":{
		"generator":"Khronos glTF Blender I/O v3.6.28",
		"version":"2.0"
	},
	"scene":0,
	"scenes":[
		{
			"name":"Scene",
			"nodes":[
				21
			]
		}
	],
	"nodes":[
		{
			"name":"Bone.016",
			"rotation":[
				4.050340430694632e-05,
				6.334183666467652e-08,
				0.005607828963547945,
				0.9999842643737793
			],
			"scale":[
				0.9999999403953552,
				1,
				1
			],
			"translation":[
				2.2457243176177144e-08,
				0.20353779196739197,
				2.3283064365386963e-10
			]
		},
		{
			"children":[
				0
			],
			"name":"Bone.011",
			"rotation":[
				0.00043018482392653823,
				1.6304859684623807e-07,
				0.059517741203308105,
				0.9982271790504456
			],
			"scale":[
				1,
				0.9999999403953552,
				1
			],
			"translation":[
				9.022187441587448e-10,
				0.43780574202537537,
				-9.313225746154785e-10
			]
		},
		{
			"children":[
				1
			],
			"name":"Bone.007",
			"rotation":[
				0.03133561089634895,
				-5.000331881888087e-08,
				-0.07814964652061462,
				0.9964490532875061
			],
			"translation":[
				-1.673470251262188e-09,
				1.1583800315856934,
				3.812601789832115e-09
			]
		},
		{
			"children":[
				2
			],
			"name":"Bone.001",
			"rotation":[
				-0.03182213753461838,
				2.11532231730871e-08,
				-0.03521930053830147,
				0.9988728165626526
			],
			"scale":[
				0.9999999403953552,
				0.9999999403953552,
				1
			],
			"translation":[
				0,
				1,
				0
			]
		},
		{
			"name":"Bone.014",
			"rotation":[
				-3.166939131915569e-05,
				-5.473668807098875e-08,
				0.02684393897652626,
				0.999639630317688
			],
			"scale":[
				1,
				1.0000001192092896,
				1.0000001192092896
			],
			"translation":[
				2.6377165340818465e-08,
				0.19686879217624664,
				-1.6298145055770874e-09
			]
		},
		{
			"children":[
				4
			],
			"name":"Bone.012",
			"rotation":[
				1.356758912152145e-05,
				3.352802480094397e-08,
				-0.011480530723929405,
				0.9999341368675232
			],
			"scale":[
				0.9999999403953552,
				0.9999999403953552,
				1.0000001192092896
			],
			"translation":[
				2.5109329726547003e-08,
				0.46165353059768677,
				-3.0850060284137726e-09
			]
		},
		{
			"children":[
				5
			],
			"name":"Bone.008",
			"rotation":[
				0.03913557156920433,
				-0.004499476402997971,
				-0.06267333030700684,
				0.997256338596344
			],
			"translation":[
				2.4796463549137115e-08,
				1.2360234260559082,
				-4.190951585769653e-09
			]
		},
		{
			"children":[
				6
			],
			"name":"Bone.002",
			"rotation":[
				-0.03942813724279404,
				2.848579372383142e-09,
				0.19084271788597107,
				0.9808284640312195
			],
			"scale":[
				1,
				0.9999999403953552,
				1
			],
			"translation":[
				0,
				1,
				0
			]
		},
		{
			"name":"Bone.015",
			"rotation":[
				-3.455877595115453e-05,
				-5.5140777277529196e-08,
				0.03241630643606186,
				0.9994744658470154
			],
			"scale":[
				0.9999999403953552,
				1.0000001192092896,
				1
			],
			"translation":[
				-1.735372290312398e-09,
				0.2679886817932129,
				-1.5161560895649018e-10
			]
		},
		{
			"children":[
				8
			],
			"name":"Bone.013",
			"rotation":[
				1.567401886859443e-05,
				-4.657443142264128e-08,
				-0.014701100997626781,
				0.9998919367790222
			],
			"translation":[
				2.3010215954855084e-09,
				0.4464758634567261,
				-2.3283064365386963e-10
			]
		},
		{
			"children":[
				9
			],
			"name":"Bone.009",
			"rotation":[
				0.03618425130844116,
				4.8212019265747585e-08,
				-0.06464802473783493,
				0.9972519278526306
			],
			"scale":[
				0.9999999403953552,
				0.9999999403953552,
				0.9999999403953552
			],
			"translation":[
				7.98536348156631e-09,
				1.1709918975830078,
				5.617039278149605e-09
			]
		},
		{
			"children":[
				10
			],
			"name":"Bone.003",
			"rotation":[
				-0.036153629422187805,
				1.2971479002032993e-08,
				0.07932101935148239,
				0.9961932897567749
			],
			"scale":[
				1,
				0.9999999403953552,
				1
			],
			"translation":[
				0,
				1,
				0
			]
		},
		{
			"name":"Bone.017",
			"rotation":[
				-0.11096896976232529,
				-0.02450384385883808,
				0.10740317404270172,
				0.9876993894577026
			],
			"translation":[
				-3.9639417082071304e-08,
				0.2044021338224411,
				0
			]
		},
		{
			"children":[
				12
			],
			"name":"Bone.010",
			"rotation":[
				0.0700158104300499,
				0.004539371933788061,
				-0.02502063848078251,
				0.9972217082977295
			],
			"translation":[
				1.3434328138828278e-07,
				0.43570029735565186,
				-7.450580596923828e-09
			]
		},
		{
			"children":[
				13
			],
			"name":"Bone.006",
			"rotation":[
				-0.10540994256734848,
				-0.0001785869972081855,
				0.0022332752123475075,
				0.9944263100624084
			],
			"scale":[
				0.9999999403953552,
				1,
				0.9999999403953552
			],
			"translation":[
				-7.07223080098629e-09,
				1.1186209917068481,
				-4.6566128730773926e-09
			]
		},
		{
			"children":[
				14
			],
			"name":"Bone.004",
			"rotation":[
				-0.02175172045826912,
				3.079700272579089e-09,
				-0.183267742395401,
				0.9828223586082458
			],
			"scale":[
				1,
				0.9999999403953552,
				0.9999999403953552
			],
			"translation":[
				0,
				1,
				0
			]
		},
		{
			"name":"Bone.019",
			"rotation":[
				0.005110622849315405,
				0.013246006332337856,
				-0.03878138214349747,
				0.9991468787193298
			],
			"translation":[
				5.21540641784668e-08,
				0.4128871560096741,
				0
			]
		},
		{
			"children":[
				16
			],
			"name":"Bone.018",
			"rotation":[
				0.04773881286382675,
				0.022932257503271103,
				-0.13622941076755524,
				0.9892606735229492
			],
			"scale":[
				1.0000001192092896,
				0.9999998807907104,
				1
			],
			"translation":[
				-3.725290298461914e-08,
				0.8559114933013916,
				-2.7939677238464355e-08
			]
		},
		{
			"children":[
				17
			],
			"name":"Bone.005",
			"rotation":[
				-0.19381625950336456,
				-0.09038715064525604,
				0.49869024753570557,
				0.8399842381477356
			],
			"scale":[
				0.9999999403953552,
				0.9999999403953552,
				0.9999999403953552
			],
			"translation":[
				0,
				1,
				0
			]
		},
		{
			"children":[
				3,
				7,
				11,
				15,
				18
			],
			"name":"Bone"
		},
		{
			"mesh":0,
			"name":"LOD0",
			"skin":0
		},
		{
			"children":[
				20,
				19
			],
			"name":"Armature",
			"translation":[
				0.12753956019878387,
				-1.4938703775405884,
				0.07709567993879318
			]
		}
	],
	"meshes":[
		{
			"name":"Circle.003",
			"primitives":[
				{
					"attributes":{
						"POSITION":0,
						"NORMAL":1,
						"JOINTS_0":2,
						"WEIGHTS_0":3
					},
					"indices":4
				}
			]
		}
	],
	"skins":[
		{
			"inverseBindMatrices":5,
			"joints":[
				19,
				3,
				2,
				1,
				0,
				7,
				6,
				5,
				4,
				11,
				10,
				9,
				8,
				15,
				14,
				13,
				12,
				18,
				17,
				16
			],
			"name":"Armature"
		}
	],
	"accessors":[
		{
			"bufferView":0,
			"componentType":5126,
			"count":13881,
			"max":[
				0.8669232726097107,
				1.7984721660614014,
				0.357101708650589
			],
			"min":[
				-1.0975868701934814,
				-1.5621607303619385,
				-0.6315794587135315
			],
			"type":"VEC3"
		},
		{
			"bufferView":1,
			"componentType":5126,
			"count":13881,
			"type":"VEC3"
		},
		{
			"bufferView":2,
			"componentType":5121,
			"count":13881,
			"type":"VEC4"
		},
		{
			"bufferView":3,
			"componentType":5126,
			"count":13881,
			"type":"VEC4"
		},
		{
			"bufferView":4,
			"componentType":5123,
			"count":83274,
			"type":"SCALAR"
		},
		{
			"bufferView":5,
			"componentType":5126,
			"count":20,
			"type":"MAT4"
		}
	],
	"bufferViews":[
		{
			"buffer":0,
			"byteLength":166572,
			"byteOffset":0,
			"target":34962
		},
		{
			"buffer":0,
			"byteLength":166572,
			"byteOffset":166572,
			"target":34962
		},
		{
			"buffer":0,
			"byteLength":55524,
			"byteOffset":333144,
			"target":34962
		},
		{
			"buffer":0,
			"byteLength":222096,
			"byteOffset":388668,
			"target":34962
		},
		{
			"buffer":0,
			"byteLength":166548,
			"byteOffset":610764,
			"target":34963
		},
		{
			"buffer":0,
			"byteLength":1280,
			"byteOffset":777312
		}
	],
	"buffers":[
		{
			"byteLength":778592,
			"uri":"hand.bin"
		}
	]
}
